<svg xmlns="http://www.w3.org/2000/svg" width="185.425" height="186.97" viewBox="0 0 185.425 186.97">
  <g id="aliens_1300_" data-name="aliens [#1300]" transform="matrix(0.819, 0.574, -0.574, 0.819, 78.487, 0)">
    <g id="Dribbble-Light-Preview" transform="translate(0 0)">
      <g id="icons">
        <path id="aliens-_1300_" data-name="aliens-[#1300]" d="M65.274,123.156c-28.019,0-48.955-10.811-48.955-20.527,0-4.446,4.5-9.169,12.067-13,6.495,11.7,20.52,19.841,36.888,19.841s30.393-8.143,36.888-19.841c7.564,3.829,12.067,8.552,12.067,13,0,9.716-20.937,20.527-48.955,20.527m0-68.419c17.7,0,30.222,15.736,21.761,29.695C83,91.135,74.8,95.787,65.274,95.787S47.552,91.135,43.513,84.431c-8.428-13.889,4.006-29.695,21.761-29.695m40.714,21.21c.008-.274.082-.479.082-.684,0-16.558-14.018-30.378-32.637-33.525V25.452c4.855-2.326,8.159-6.7,8.159-11.768C81.592,6.157,74.289,0,65.274,0S48.955,6.157,48.955,13.684c0,5.064,3.3,9.442,8.159,11.768V41.737C38.5,44.884,24.478,58.7,24.478,75.262c0,.205.073.41.082.684C9.6,82.173,0,91.818,0,102.629c0,18.884,29.226,34.21,65.274,34.21s65.274-15.326,65.274-34.21c0-10.811-9.6-20.456-24.559-26.682" fill="#19aea9" fill-rule="evenodd"/>
      </g>
    </g>
  </g>
</svg>
